<svg width="132" height="44" viewBox="0 0 132 44" fill="none" xmlns="http://www.w3.org/2000/svg">
<path d="M6.70371 13.1188C5.57229 13.1188 4.53137 12.8529 3.58097 12.3211C2.64189 11.7894 1.89514 11.0539 1.34074 10.1149C0.786343 9.17577 0.509143 8.11789 0.509143 6.9412C0.509143 5.76451 0.786343 4.70663 1.34074 3.76754C1.89514 2.82846 2.64189 2.09869 3.58097 1.57823C4.53137 1.04646 5.57229 0.780571 6.70371 0.780571C7.83514 0.780571 8.8704 1.04646 9.80949 1.57823C10.7486 2.09869 11.4897 2.82846 12.0327 3.76754C12.5871 4.70663 12.8643 5.76451 12.8643 6.9412C12.8643 8.11789 12.5871 9.17577 12.0327 10.1149C11.4897 11.0539 10.7429 11.7894 9.79251 12.3211C8.85343 12.8529 7.82383 13.1188 6.70371 13.1188ZM6.70371 9.60571C7.45046 9.60571 8.02749 9.36811 8.4348 8.89291C8.84211 8.4064 9.04577 7.75583 9.04577 6.9412C9.04577 6.11526 8.84211 5.46469 8.4348 4.98949C8.02749 4.50297 7.45046 4.25971 6.70371 4.25971C5.94566 4.25971 5.36297 4.50297 4.95566 4.98949C4.54834 5.46469 4.34469 6.11526 4.34469 6.9412C4.34469 7.75583 4.54834 8.4064 4.95566 8.89291C5.36297 9.36811 5.94566 9.60571 6.70371 9.60571ZM38.3908 13H34.6232L30.6349 6.95817V13H26.8672V0.984229H30.6349L34.6232 7.12789V0.984229H38.3908V13ZM56.5044 10.1488H60.1363V13H52.7367V0.984229H56.5044V10.1488ZM77.7332 0.984229V13H73.9656V0.984229H77.7332ZM103.602 13H99.8346L95.8463 6.95817V13H92.0786V0.984229H95.8463L99.8346 7.12789V0.984229H103.602V13ZM121.716 3.98817V5.46469H125.449V8.29891H121.716V9.99606H125.959V13H117.948V0.984229H125.959V3.98817H121.716Z" fill="#FE6201"/>
<path d="M9.2136 20.8368C8.58 20.872 8.1136 20.9424 7.8144 21.048C7.5328 21.1536 7.3392 21.356 7.2336 21.6552C7.128 21.9544 7.0752 22.4384 7.0752 23.1072V36.5184C7.0752 37.0816 7.1192 37.4952 7.2072 37.7592C7.2952 38.0056 7.4448 38.1728 7.656 38.2608C7.8848 38.3488 8.2456 38.3928 8.7384 38.3928H10.032C11.2288 38.3928 12.2584 37.856 13.1208 36.7824C14.0008 35.7088 14.5728 34.2832 14.8368 32.5056H15.444C15.3912 33.104 15.3648 33.8784 15.3648 34.8288C15.3648 36.5184 15.4264 37.9088 15.5496 39C14.3528 38.9472 12.3376 38.9208 9.504 38.9208C5.6672 38.9208 2.7984 38.9472 0.8976 39V38.472C1.4784 38.4368 1.9008 38.3664 2.1648 38.2608C2.4464 38.1552 2.6312 37.9528 2.7192 37.6536C2.8248 37.3544 2.8776 36.8704 2.8776 36.2016V23.1072C2.8776 22.4384 2.8248 21.9544 2.7192 21.6552C2.6312 21.356 2.4464 21.1536 2.1648 21.048C1.9008 20.9424 1.4784 20.872 0.8976 20.8368V20.3088C1.7952 20.3616 3.1856 20.388 5.0688 20.388C6.864 20.388 8.2456 20.3616 9.2136 20.3088V20.8368ZM27.5703 37.2048C29.0135 37.2048 30.1751 36.5008 31.0551 35.0928L31.5303 35.2512C31.1783 36.3952 30.5447 37.372 29.6295 38.1816C28.7319 38.9736 27.6055 39.3696 26.2503 39.3696C24.3847 39.3696 22.8975 38.78 21.7887 37.6008C20.6975 36.404 20.1519 34.644 20.1519 32.3208C20.1519 29.9448 20.7415 28.132 21.9207 26.8824C23.0999 25.6152 24.6663 24.9816 26.6199 24.9816C29.9287 24.9816 31.5831 26.9352 31.5831 30.8424H24.1647C24.1471 31.1064 24.1383 31.52 24.1383 32.0832C24.1383 33.2448 24.2967 34.2128 24.6135 34.9872C24.9479 35.7616 25.3703 36.3248 25.8807 36.6768C26.4087 37.0288 26.9719 37.2048 27.5703 37.2048ZM26.4615 25.536C25.8279 25.536 25.2999 25.932 24.8775 26.724C24.4727 27.4984 24.2175 28.704 24.1119 30.3408H28.2567C28.2919 28.9504 28.1511 27.8064 27.8343 26.9088C27.5351 25.9936 27.0775 25.536 26.4615 25.536ZM39.6326 39.1848C38.5062 39.1848 37.6614 38.8944 37.0982 38.3136C36.5526 37.7328 36.2798 36.9672 36.2798 36.0168C36.2798 35.2248 36.4822 34.5736 36.887 34.0632C37.3094 33.5352 37.811 33.1304 38.3918 32.8488C38.9902 32.5672 39.747 32.268 40.6622 31.9512C41.6302 31.6168 42.3342 31.3176 42.7742 31.0536C43.2318 30.772 43.4606 30.3936 43.4606 29.9184V27.8592C43.4606 27.12 43.2846 26.548 42.9326 26.1432C42.5982 25.7208 42.0702 25.5096 41.3486 25.5096C40.5038 25.5096 39.8614 25.7208 39.4214 26.1432C39.9142 26.3192 40.2926 26.5832 40.5566 26.9352C40.8382 27.2872 40.979 27.7008 40.979 28.176C40.979 28.7744 40.7766 29.2496 40.3718 29.6016C39.967 29.9536 39.4742 30.1296 38.8934 30.1296C38.2774 30.1296 37.8022 29.936 37.4678 29.5488C37.1334 29.1616 36.9662 28.6776 36.9662 28.0968C36.9662 27.604 37.0806 27.1904 37.3094 26.856C37.5558 26.504 37.9254 26.1784 38.4182 25.8792C38.8934 25.5976 39.4742 25.3776 40.1606 25.2192C40.8646 25.0608 41.6302 24.9816 42.4574 24.9816C43.3198 24.9816 44.0678 25.0696 44.7014 25.2456C45.335 25.4216 45.863 25.7208 46.2854 26.1432C46.6726 26.5304 46.9278 27.0056 47.051 27.5688C47.1918 28.132 47.2622 28.8976 47.2622 29.8656V37.0464C47.2622 37.4688 47.2974 37.768 47.3678 37.944C47.4558 38.12 47.6142 38.208 47.843 38.208C48.107 38.208 48.4238 38.0584 48.7934 37.7592L49.0574 38.208C48.2654 38.8592 47.2974 39.1848 46.1534 39.1848C45.1854 39.1848 44.5078 38.9912 44.1206 38.604C43.7334 38.2168 43.531 37.6976 43.5134 37.0464C42.6334 38.472 41.3398 39.1848 39.6326 39.1848ZM41.6654 37.4952C42.3518 37.4952 42.9502 37.1344 43.4606 36.4128V31.0008C43.2494 31.3528 42.8006 31.74 42.1142 32.1624C41.4278 32.6024 40.9086 33.0424 40.5566 33.4824C40.2046 33.9224 40.0286 34.556 40.0286 35.3832C40.0286 36.1048 40.1782 36.6416 40.4774 36.9936C40.7766 37.328 41.1726 37.4952 41.6654 37.4952ZM61.9294 24.9816C62.7214 24.9816 63.3198 25.2192 63.7246 25.6944C64.1294 26.1696 64.3318 26.7416 64.3318 27.4104C64.3318 28.0616 64.1382 28.5984 63.751 29.0208C63.3814 29.4256 62.8886 29.628 62.2726 29.628C61.6742 29.628 61.199 29.4784 60.847 29.1792C60.495 28.8624 60.319 28.4488 60.319 27.9384C60.319 27.0936 60.7062 26.4072 61.4806 25.8792C61.4102 25.8616 61.3046 25.8528 61.1638 25.8528C60.9878 25.8528 60.847 25.8704 60.7414 25.9056C60.0726 26.0112 59.5006 26.416 59.0254 27.12C58.5678 27.824 58.339 28.5456 58.339 29.2848V36.2808C58.339 37.0904 58.5326 37.6536 58.9198 37.9704C59.3246 38.2872 59.9582 38.4456 60.8206 38.4456V39C60.5742 39 60.3718 38.9912 60.2134 38.9736C58.4182 38.9208 57.2214 38.8944 56.623 38.8944C56.1478 38.8944 55.0654 38.9208 53.3758 38.9736C53.235 38.9912 53.059 39 52.8478 39V38.4456C53.4814 38.4456 53.9214 38.3136 54.1678 38.0496C54.4142 37.768 54.5374 37.2664 54.5374 36.5448V28.2288C54.5374 27.4192 54.4142 26.8296 54.1678 26.46C53.9214 26.0904 53.4814 25.9056 52.8478 25.9056V25.3512C53.411 25.404 53.9566 25.4304 54.4846 25.4304C56.051 25.4304 57.3358 25.3072 58.339 25.0608V27.516C58.6734 26.7592 59.1574 26.152 59.791 25.6944C60.4246 25.2192 61.1374 24.9816 61.9294 24.9816ZM78.0281 24.9816C79.3657 24.9816 80.3337 25.3248 80.9321 26.0112C81.2313 26.3456 81.4425 26.7768 81.5657 27.3048C81.6889 27.8328 81.7505 28.5456 81.7505 29.4432V36.5448C81.7505 37.2664 81.8737 37.768 82.1201 38.0496C82.3841 38.3136 82.8241 38.4456 83.4401 38.4456V39C81.6801 38.9296 80.5185 38.8944 79.9553 38.8944C79.4273 38.8944 78.2833 38.9296 76.5233 39V38.4456C77.0513 38.4456 77.4209 38.3136 77.6321 38.0496C77.8433 37.768 77.9489 37.2664 77.9489 36.5448V28.3344C77.9489 27.6128 77.8257 27.0672 77.5793 26.6976C77.3505 26.328 76.9281 26.1432 76.3121 26.1432C75.5905 26.1432 74.9745 26.4424 74.4641 27.0408C73.9537 27.6216 73.6985 28.3432 73.6985 29.2056V36.5448C73.6985 37.2664 73.8041 37.768 74.0153 38.0496C74.2265 38.3136 74.5961 38.4456 75.1241 38.4456V39C73.5049 38.9296 72.4137 38.8944 71.8505 38.8944C71.3225 38.8944 70.1081 38.9296 68.2073 39V38.4456C68.8409 38.4456 69.2809 38.3136 69.5273 38.0496C69.7737 37.768 69.8969 37.2664 69.8969 36.5448V28.2288C69.8969 27.4192 69.7737 26.8296 69.5273 26.46C69.2809 26.0904 68.8409 25.9056 68.2073 25.9056V25.3512C68.7705 25.404 69.3161 25.4304 69.8441 25.4304C71.4105 25.4304 72.6953 25.3072 73.6985 25.0608V27.4368C74.4905 25.8 75.9337 24.9816 78.0281 24.9816ZM90.8917 18.54C91.6309 18.54 92.2117 18.7248 92.6341 19.0944C93.0741 19.4464 93.2941 19.9392 93.2941 20.5728C93.2941 21.2064 93.0741 21.708 92.6341 22.0776C92.2117 22.4296 91.6309 22.6056 90.8917 22.6056C90.1525 22.6056 89.5629 22.4296 89.1229 22.0776C88.7005 21.708 88.4893 21.2064 88.4893 20.5728C88.4893 19.9392 88.7005 19.4464 89.1229 19.0944C89.5629 18.7248 90.1525 18.54 90.8917 18.54ZM92.9509 36.5448C92.9509 37.2664 93.0741 37.768 93.3205 38.0496C93.5845 38.3136 94.0245 38.4456 94.6405 38.4456V39C92.8805 38.9296 91.7101 38.8944 91.1293 38.8944C90.5837 38.8944 89.3605 38.9296 87.4597 39V38.4456C88.0933 38.4456 88.5333 38.3136 88.7797 38.0496C89.0261 37.768 89.1493 37.2664 89.1493 36.5448V28.2288C89.1493 27.4192 89.0261 26.8296 88.7797 26.46C88.5333 26.0904 88.0933 25.9056 87.4597 25.9056V25.3512C88.0229 25.404 88.5685 25.4304 89.0965 25.4304C90.6629 25.4304 91.9477 25.3072 92.9509 25.0608V36.5448ZM108.644 24.9816C109.981 24.9816 110.949 25.3248 111.548 26.0112C111.847 26.3456 112.058 26.7768 112.181 27.3048C112.305 27.8328 112.366 28.5456 112.366 29.4432V36.5448C112.366 37.2664 112.489 37.768 112.736 38.0496C113 38.3136 113.44 38.4456 114.056 38.4456V39C112.296 38.9296 111.134 38.8944 110.571 38.8944C110.043 38.8944 108.899 38.9296 107.139 39V38.4456C107.667 38.4456 108.037 38.3136 108.248 38.0496C108.459 37.768 108.565 37.2664 108.565 36.5448V28.3344C108.565 27.6128 108.441 27.0672 108.195 26.6976C107.966 26.328 107.544 26.1432 106.928 26.1432C106.206 26.1432 105.59 26.4424 105.08 27.0408C104.569 27.6216 104.314 28.3432 104.314 29.2056V36.5448C104.314 37.2664 104.42 37.768 104.631 38.0496C104.842 38.3136 105.212 38.4456 105.74 38.4456V39C104.121 38.9296 103.029 38.8944 102.466 38.8944C101.938 38.8944 100.724 38.9296 98.823 39V38.4456C99.4566 38.4456 99.8966 38.3136 100.143 38.0496C100.389 37.768 100.513 37.2664 100.513 36.5448V28.2288C100.513 27.4192 100.389 26.8296 100.143 26.46C99.8966 26.0904 99.4566 25.9056 98.823 25.9056V25.3512C99.3862 25.404 99.9318 25.4304 100.46 25.4304C102.026 25.4304 103.311 25.3072 104.314 25.0608V27.4368C105.106 25.8 106.549 24.9816 108.644 24.9816ZM130.409 27.8856C130.057 27.8856 129.757 27.7712 129.511 27.5424C129.265 27.296 129.141 26.9528 129.141 26.5128C129.141 26.0904 129.247 25.6592 129.458 25.2192C129.036 25.3952 128.684 25.5976 128.402 25.8264C128.138 26.0376 127.909 26.3104 127.716 26.6448C128.261 27.296 128.534 28.1408 128.534 29.1792C128.534 30.5696 128.05 31.6168 127.082 32.3208C126.132 33.0248 124.865 33.3768 123.281 33.3768H122.805C122.084 33.7992 121.723 34.2656 121.723 34.776C121.723 35.3392 122.075 35.6208 122.779 35.6208H125.657C127.205 35.6208 128.437 35.9112 129.353 36.492C130.285 37.0552 130.752 37.9264 130.752 39.1056C130.752 40.0032 130.461 40.8128 129.881 41.5344C129.317 42.2736 128.455 42.8632 127.293 43.3032C126.132 43.7432 124.706 43.9632 123.017 43.9632C121.309 43.9632 119.937 43.7432 118.898 43.3032C117.877 42.8808 117.367 42.2648 117.367 41.4552C117.367 40.9096 117.613 40.4168 118.106 39.9768C118.599 39.5544 119.329 39.22 120.297 38.9736L120.535 39.396C119.901 39.924 119.585 40.5312 119.585 41.2176C119.585 41.9568 119.919 42.52 120.588 42.9072C121.257 43.312 122.181 43.5144 123.36 43.5144C124.592 43.5144 125.586 43.268 126.343 42.7752C127.117 42.2824 127.505 41.5872 127.505 40.6896C127.505 40.1088 127.285 39.6512 126.845 39.3168C126.422 38.9824 125.674 38.8152 124.601 38.8152H122.964C121.837 38.8152 120.957 38.6304 120.324 38.2608C119.69 37.8736 119.373 37.2928 119.373 36.5184C119.373 35.8672 119.602 35.2864 120.06 34.776C120.517 34.2656 121.213 33.7728 122.145 33.2976C120.878 33.1392 119.875 32.7168 119.136 32.0304C118.397 31.344 118.027 30.3936 118.027 29.1792C118.027 27.7888 118.502 26.7416 119.453 26.0376C120.421 25.3336 121.697 24.9816 123.281 24.9816C125.041 24.9816 126.387 25.3952 127.32 26.2224C127.654 25.7472 128.068 25.3688 128.561 25.0872C129.053 24.8056 129.555 24.6648 130.065 24.6648C130.593 24.6648 131.007 24.8232 131.306 25.14C131.623 25.4392 131.781 25.8352 131.781 26.328C131.781 26.8208 131.641 27.208 131.359 27.4896C131.095 27.7536 130.778 27.8856 130.409 27.8856ZM123.281 32.9016C123.773 32.9016 124.143 32.62 124.389 32.0568C124.653 31.4936 124.785 30.5344 124.785 29.1792C124.785 27.824 124.653 26.8648 124.389 26.3016C124.143 25.7384 123.773 25.4568 123.281 25.4568C122.788 25.4568 122.409 25.7384 122.145 26.3016C121.899 26.8648 121.776 27.824 121.776 29.1792C121.776 30.5344 121.899 31.4936 122.145 32.0568C122.409 32.62 122.788 32.9016 123.281 32.9016Z" fill="#252525"/>
</svg>
